<?xml version="1.0" encoding="utf-8" ?>
<svg xmlns="http://www.w3.org/2000/svg" xmlns:xlink="http://www.w3.org/1999/xlink" width="1024" height="1024">
	<path fill="#2734F9" transform="scale(1.6 1.6)" d="M326.266 544.779C308.934 551.056 299.673 529.453 292.278 517.931C255.724 460.973 219.53 403.768 183.562 346.439C178.52 338.402 173.533 330.349 169.548 321.719C127.268 230.151 182.862 119.504 280.866 95.347C291.705 92.6754 302.686 91.3844 313.812 90.7563C318.957 90.2616 324.261 90.5324 329.411 90.83C446.719 97.6077 524.206 227.158 466.089 331.489C461.495 339.737 456.288 347.526 451.244 355.493C419.792 405.17 388.501 454.877 356.967 504.52C350.207 515.163 337.627 539.102 326.266 544.779ZM313.451 151.748C282.6 154.965 259.401 166.885 239.645 191.397C183.535 261.011 236.642 365.878 326.327 361.15C382.796 357.462 427.049 307.538 423.396 250.856C419.828 195.481 370.871 147.194 314.334 151.661L313.451 151.748Z"/>
	<path fill="#2734F9" transform="scale(1.6 1.6)" d="M372.813 296.723L370.936 300C365.067 309.66 355.184 317.551 344.942 322.13C304.113 340.385 257.23 310.763 261.412 262.998C263.346 240.911 262.202 218.707 262.235 196.537C262.241 192.175 261.695 189.545 265.942 187.242C273.889 186.782 279.85 193.435 285.612 198.103C292.376 203.582 299.013 209.228 305.694 214.808C314.754 212.84 324.747 212.822 333.812 214.708C341.41 209.737 351.674 199.85 359.489 193.814C367.309 187.773 377.79 181.061 377.828 197.54C377.866 214.141 377.667 230.745 377.873 247.344C378.116 266.888 382.041 277.896 372.813 296.723ZM300.525 259.425C289.676 262.495 291.807 276.63 303.475 276.257C313.733 273.528 311.883 258.637 300.525 259.425ZM337.351 259.712C327.071 263.16 328.995 277.431 340.666 276.256C350.581 272.695 348.663 259.313 337.351 259.712Z"/>
	<path fill="#2734F9" transform="scale(1.6 1.6)" d="M284.531 580.963C274.867 580.988 260.03 583.458 259.076 569.748C258.19 557.014 268.485 556.775 278.056 556.85C304.258 557.055 330.569 557.555 356.749 556.712L366.061 556.69C374.032 556.475 381.548 559.608 381.65 568.651C381.787 580.759 369.817 580.951 361.085 580.956C335.567 580.969 310.049 580.967 284.531 580.963Z"/>
</svg>
