<?xml version="1.0" encoding="utf-8" ?>
<svg xmlns="http://www.w3.org/2000/svg" xmlns:xlink="http://www.w3.org/1999/xlink" width="1024" height="1024">
	<path fill="#2734F9" transform="scale(1.6 1.6)" d="M322.734 557.03C330.6 557.328 366.567 555.967 371.502 558.259C380.22 562.308 381.569 576.42 371.652 579.95L371.253 580.084C365.595 582.024 326.811 580.732 318.828 580.73C306.568 580.75 294.317 580.835 282.064 580.532C278.428 580.442 274.487 581.036 270.907 580.404C258.919 578.289 260.252 559.629 271.441 557.437C273.455 557.042 275.645 557.176 277.691 557.175C292.701 557.165 307.731 557.447 322.734 557.03Z"/>
	<path fill="#2734F9" transform="scale(1.6 1.6)" d="M308.46 92.687L316.717 92.3999C406.429 90.5225 483.519 161.91 484.961 252.345C485.765 302.716 466 329.683 440.68 370.353C406.304 425.57 369.945 480.327 336.646 536.012C334.427 539.722 332.428 543.742 329.403 546.867C324.782 550.471 316.528 551.248 311.88 547.322C308.912 544.815 306.852 540.918 304.869 537.641C268.042 476.778 228.903 416.602 191.042 356.221C175.996 332.226 164.106 312.673 158.362 284.474C148.73 237.185 164.128 185.294 195.489 149.108C224.037 116.167 265.019 95.8131 308.46 92.687ZM313.789 152.656C278.45 154.466 245.588 174.49 228.329 205.364C217.996 223.849 214.832 245.324 216.019 266.24C219.262 323.413 269.263 367.343 326.223 363.944L327.049 363.887C392.822 359.586 436.955 295.782 421.955 232.151C410.397 183.12 364.909 149.34 314.477 152.605L313.789 152.656Z"/>
	<path fill="#2734F9" transform="scale(1.6 1.6)" d="M357.742 194.728C372.549 194.043 371.33 229.376 372.244 239.404C382.328 252.618 384.787 262.419 380.529 278.197C367.729 325.623 311.876 342.179 276.855 308.044L270.781 301.228C262.343 290.206 255.663 273.87 257.716 259.793L257.803 259.219C258.58 253.68 261.164 248.609 264.485 244.173C269.321 237.713 268.077 236.059 268.528 228.169C268.945 220.857 270.664 201.539 276.406 196.722C286.511 188.245 302.614 212.576 307.929 218.929L332.638 218.533C337.568 211.402 350.055 196.638 357.742 194.728ZM301.614 262.551C298.511 263.155 295.983 264.885 294.722 267.812L294.535 268.24C291.77 274.914 298.472 279.287 304.308 278.842C314.815 274.683 312.644 261.851 301.614 262.551ZM337.753 262.59C325.988 264.228 325.648 277.629 336.604 278.605C338.265 278.498 339.544 278.424 341.041 277.615L341.42 277.417C347.236 274.247 346.813 264.24 340.047 262.834L337.753 262.59Z"/>
</svg>
